<?xml version="1.0" encoding="UTF-8" standalone="no"?>
<svg
   viewBox="0 0 121.63094 122.08189"
   version="1.1"
   id="svg3"
   sodipodi:docname="favicon.svg"
   inkscape:export-filename="kubernetes-original-wordmark_300.png"
   inkscape:export-xdpi="473.56369"
   inkscape:export-ydpi="473.56369"
   inkscape:version="1.4.2 (ebf0e940, 2025-05-08)"
   width="121.63094"
   height="122.08189"
   xmlns:inkscape="http://www.inkscape.org/namespaces/inkscape"
   xmlns:sodipodi="http://sodipodi.sourceforge.net/DTD/sodipodi-0.dtd"
   xmlns:xlink="http://www.w3.org/1999/xlink"
   xmlns="http://www.w3.org/2000/svg"
   xmlns:svg="http://www.w3.org/2000/svg">
  <sodipodi:namedview
     id="namedview3"
     pagecolor="#505050"
     bordercolor="#eeeeee"
     borderopacity="1"
     inkscape:showpageshadow="0"
     inkscape:pageopacity="0"
     inkscape:pagecheckerboard="0"
     inkscape:deskcolor="#505050"
     inkscape:zoom="5.5782229"
     inkscape:cx="60.772042"
     inkscape:cy="61.040945"
     inkscape:window-width="1440"
     inkscape:window-height="900"
     inkscape:window-x="0"
     inkscape:window-y="0"
     inkscape:window-maximized="0"
     inkscape:current-layer="svg3"
     showgrid="false" />
  <defs
     id="defs3">
    <rect
       x="34.598831"
       y="65.612289"
       width="60.144604"
       height="18.912832"
       id="rect40" />
    <linearGradient
       id="linearGradient4"
       inkscape:collect="always">
      <stop
         style="stop-color:#326ce5;stop-opacity:1;"
         offset="0"
         id="stop4" />
      <stop
         style="stop-color:#ffff00;stop-opacity:1"
         offset="1"
         id="stop5" />
    </linearGradient>
    <linearGradient
       inkscape:collect="always"
       xlink:href="#linearGradient4"
       id="linearGradient5"
       x1="63.835087"
       y1="12.37114"
       x2="62.680447"
       y2="103.58768"
       gradientUnits="userSpaceOnUse" />
    <clipPath
       clipPathUnits="userSpaceOnUse"
       id="clipPath39">
      <path
         style="display:inline;opacity:0.5;fill:none;stroke:#000000;stroke-width:1.05764"
         d="m 86.90441,56.296594 3.42373,0.375844 0.402014,0.09242 3.595146,2.08835 -0.785871,3.415382 -4.153017,0.336147 -0.40267,-0.08956 -3.249451,-1.133257 -2.210659,4.55237 2.920099,1.811274 0.321832,0.256217 2.32509,3.427912 -2.202782,2.739186 -3.888805,-1.483542 -0.323672,-0.2539 -2.431678,-2.418732 -3.984141,3.150643 1.838215,2.887985 0.177835,0.369221 0.594582,4.08856 -3.183449,1.520356 -2.854504,-3.009262 -0.180388,-0.36807 -1.13232,-3.225098 -4.968474,1.124891 0.392252,3.392681 -0.0014,0.409153 -1.253713,3.93942 -3.53362,5.04e-4 -1.254696,-3.939188 -0.0015,-0.409167 0.391394,-3.392819 -4.968783,-1.123662 -1.131455,3.225458 -0.180345,0.368041 -2.853708,3.010097 -3.183843,-1.51962 0.59354,-4.088715 0.177701,-0.369287 1.83752,-2.888431 -3.984913,-3.149648 -2.431073,2.419257 -0.323549,0.254107 -3.888478,1.484375 -2.20348,-2.738579 2.324236,-3.428486 0.321752,-0.256242 2.919673,-1.812016 -2.211822,-4.551825 -3.249162,1.134042 -0.402718,0.08963 -4.153063,-0.335082 -0.786666,-3.415232 3.594567,-2.089215 0.402073,-0.09251 3.423544,-0.376695 -6.16e-4,-5.052438 -3.42373,-0.375844 -0.402014,-0.09242 -3.595146,-2.08835 0.785871,-3.415382 4.153017,-0.336147 0.40267,0.08956 3.249451,1.133257 2.210659,-4.55237 -2.920099,-1.811274 -0.321832,-0.256217 -2.32509,-3.427912 2.202782,-2.739186 3.888805,1.483542 0.323672,0.2539 2.431678,2.418732 3.984141,-3.150643 -1.838215,-2.887985 -0.177835,-0.369221 -0.594582,-4.08856 3.183449,-1.520356 2.854504,3.009262 0.180388,0.36807 1.13232,3.225098 4.968474,-1.124891 -0.392252,-3.392681 0.0014,-0.409153 1.253713,-3.93942 3.53362,-5.04e-4 1.254696,3.939188 0.0015,0.409167 -0.391394,3.392819 4.968783,1.123662 1.131455,-3.225458 0.180345,-0.368041 2.853708,-3.010097 3.183843,1.51962 -0.59354,4.088715 -0.177701,0.369287 -1.83752,2.888431 3.984913,3.149648 2.431073,-2.419257 0.323549,-0.254107 3.888478,-1.484375 2.20348,2.738579 -2.324236,3.428486 -0.321752,0.256242 -2.919673,1.812016 2.211822,4.551825 3.249162,-1.134042 0.402718,-0.08963 4.153063,0.335082 0.786666,3.415232 -3.594567,2.089215 -0.402073,0.09251 -3.423544,0.376695 z"
         id="path39" />
    </clipPath>
    <clipPath
       clipPathUnits="userSpaceOnUse"
       id="clipPath40">
      <path
         style="display:inline;opacity:0.5;fill:none;stroke:#000000;stroke-width:1.05764"
         d="m 86.90441,56.296594 3.42373,0.375844 0.402014,0.09242 3.595146,2.08835 -0.785871,3.415382 -4.153017,0.336147 -0.40267,-0.08956 -3.249451,-1.133257 -2.210659,4.55237 2.920099,1.811274 0.321832,0.256217 2.32509,3.427912 -2.202782,2.739186 -3.888805,-1.483542 -0.323672,-0.2539 -2.431678,-2.418732 -3.984141,3.150643 1.838215,2.887985 0.177835,0.369221 0.594582,4.08856 -3.183449,1.520356 -2.854504,-3.009262 -0.180388,-0.36807 -1.13232,-3.225098 -4.968474,1.124891 0.392252,3.392681 -0.0014,0.409153 -1.253713,3.93942 -3.53362,5.04e-4 -1.254696,-3.939188 -0.0015,-0.409167 0.391394,-3.392819 -4.968783,-1.123662 -1.131455,3.225458 -0.180345,0.368041 -2.853708,3.010097 -3.183843,-1.51962 0.59354,-4.088715 0.177701,-0.369287 1.83752,-2.888431 -3.984913,-3.149648 -2.431073,2.419257 -0.323549,0.254107 -3.888478,1.484375 -2.20348,-2.738579 2.324236,-3.428486 0.321752,-0.256242 2.919673,-1.812016 -2.211822,-4.551825 -3.249162,1.134042 -0.402718,0.08963 -4.153063,-0.335082 -0.786666,-3.415232 3.594567,-2.089215 0.402073,-0.09251 3.423544,-0.376695 -6.16e-4,-5.052438 -3.42373,-0.375844 -0.402014,-0.09242 -3.595146,-2.08835 0.785871,-3.415382 4.153017,-0.336147 0.40267,0.08956 3.249451,1.133257 2.210659,-4.55237 -2.920099,-1.811274 -0.321832,-0.256217 -2.32509,-3.427912 2.202782,-2.739186 3.888805,1.483542 0.323672,0.2539 2.431678,2.418732 3.984141,-3.150643 -1.838215,-2.887985 -0.177835,-0.369221 -0.594582,-4.08856 3.183449,-1.520356 2.854504,3.009262 0.180388,0.36807 1.13232,3.225098 4.968474,-1.124891 -0.392252,-3.392681 0.0014,-0.409153 1.253713,-3.93942 3.53362,-5.04e-4 1.254696,3.939188 0.0015,0.409167 -0.391394,3.392819 4.968783,1.123662 1.131455,-3.225458 0.180345,-0.368041 2.853708,-3.010097 3.183843,1.51962 -0.59354,4.088715 -0.177701,0.369287 -1.83752,2.888431 3.984913,3.149648 2.431073,-2.419257 0.323549,-0.254107 3.888478,-1.484375 2.20348,2.738579 -2.324236,3.428486 -0.321752,0.256242 -2.919673,1.812016 2.211822,4.551825 3.249162,-1.134042 0.402718,-0.08963 4.153063,0.335082 0.786666,3.415232 -3.594567,2.089215 -0.402073,0.09251 -3.423544,0.376695 z"
         id="path40" />
    </clipPath>
  </defs>
  <g
     id="g1"
     transform="matrix(2,0,0,2,-67.019662,-46.505488)">
    <path
       fill="#326ce5"
       d="m 63.8,16.283 a 4.956,4.915 0 0 0 -1.899,0.48 L 35.985,29.146 a 4.956,4.915 0 0 0 -2.682,3.335 L 26.91,60.296 a 4.956,4.915 0 0 0 0.673,3.768 4.956,4.915 0 0 0 0.281,0.39 L 45.802,86.76 a 4.956,4.915 0 0 0 3.875,1.85 l 28.767,-0.007 a 4.956,4.915 0 0 0 3.874,-1.847 L 100.25,64.45 a 4.956,4.915 0 0 0 0.958,-4.16 L 94.804,32.475 A 4.956,4.915 0 0 0 92.123,29.141 L 66.203,16.763 A 4.956,4.915 0 0 0 63.8,16.283 Z"
       id="path2"
       style="display:inline;fill:url(#linearGradient5);fill-opacity:1"
       clip-path="url(#clipPath40)" />
    <path
       fill="#ffffff"
       d="m 64.057,25.748 c -0.857,0 -1.551,0.772 -1.551,1.724 0,0.015 0.003,0.029 0.003,0.043 -10e-4,0.13 -0.007,0.285 -0.003,0.398 0.02,0.549 0.14,0.97 0.212,1.475 0.13,1.082 0.24,1.98 0.172,2.814 -0.065,0.314 -0.297,0.602 -0.503,0.802 L 62.35,33.66 a 20.187,20.187 0 0 0 -2.804,0.43 19.952,19.952 0 0 0 -10.136,5.79 26.001,26.001 0 0 1 -0.56,-0.396 c -0.277,0.037 -0.557,0.123 -0.921,-0.09 -0.695,-0.467 -1.327,-1.112 -2.092,-1.89 -0.35,-0.371 -0.604,-0.724 -1.02,-1.083 -0.095,-0.081 -0.24,-0.191 -0.345,-0.275 a 1.845,1.845 0 0 0 -1.08,-0.408 1.494,1.494 0 0 0 -1.237,0.547 c -0.534,0.67 -0.363,1.694 0.38,2.287 l 0.024,0.017 c 0.102,0.083 0.228,0.189 0.322,0.258 0.442,0.327 0.845,0.494 1.286,0.753 0.927,0.573 1.697,1.048 2.307,1.62 0.238,0.255 0.28,0.702 0.311,0.896 l 0.497,0.444 a 20.073,20.073 0 0 0 -3.165,13.994 l -0.65,0.189 c -0.17,0.22 -0.413,0.569 -0.666,0.672 -0.798,0.252 -1.696,0.344 -2.78,0.458 -0.51,0.042 -0.95,0.017 -1.489,0.119 -0.119,0.023 -0.284,0.066 -0.414,0.096 l -0.014,0.003 -0.023,0.007 c -0.914,0.22 -1.501,1.06 -1.312,1.89 0.189,0.827 1.082,1.33 2.002,1.133 0.006,-0.002 0.016,-0.002 0.023,-0.003 0.01,-0.003 0.02,-0.008 0.03,-0.01 0.128,-0.028 0.289,-0.06 0.4,-0.09 0.531,-0.142 0.916,-0.35 1.393,-0.533 1.026,-0.37 1.876,-0.676 2.704,-0.796 0.346,-0.027 0.71,0.213 0.892,0.315 l 0.676,-0.116 c 1.556,4.824 4.817,8.723 8.946,11.17 l -0.282,0.676 c 0.102,0.263 0.214,0.618 0.138,0.877 -0.3,0.78 -0.817,1.605 -1.404,2.524 -0.284,0.424 -0.575,0.753 -0.832,1.24 -0.061,0.115 -0.14,0.294 -0.199,0.417 -0.398,0.853 -0.106,1.835 0.66,2.204 0.77,0.37 1.727,-0.02 2.141,-0.875 l 0.004,-0.004 v -0.003 c 0.059,-0.122 0.142,-0.28 0.192,-0.395 0.22,-0.503 0.293,-0.935 0.447,-1.422 0.41,-1.03 0.636,-2.112 1.201,-2.786 0.155,-0.185 0.407,-0.256 0.669,-0.326 l 0.351,-0.636 a 20.043,20.043 0 0 0 11.654,0.838 20.128,20.128 0 0 0 2.661,-0.802 c 0.1,0.175 0.283,0.512 0.332,0.597 0.266,0.086 0.556,0.13 0.792,0.48 0.423,0.722 0.712,1.577 1.064,2.609 0.155,0.487 0.231,0.918 0.45,1.422 0.05,0.114 0.134,0.276 0.193,0.397 0.413,0.858 1.373,1.25 2.145,0.879 0.765,-0.37 1.058,-1.352 0.66,-2.204 -0.06,-0.123 -0.142,-0.302 -0.203,-0.418 -0.257,-0.486 -0.548,-0.812 -0.832,-1.236 -0.587,-0.92 -1.074,-1.682 -1.375,-2.463 -0.126,-0.403 0.02,-0.653 0.119,-0.915 -0.059,-0.067 -0.185,-0.447 -0.259,-0.626 a 20.186,20.186 0 0 0 8.943,-11.25 c 0.2,0.032 0.55,0.094 0.663,0.116 0.233,-0.154 0.447,-0.354 0.868,-0.321 0.828,0.12 1.678,0.427 2.705,0.795 0.477,0.183 0.861,0.395 1.392,0.537 0.112,0.03 0.273,0.058 0.4,0.086 0.011,0.003 0.02,0.008 0.03,0.01 l 0.024,0.004 c 0.92,0.198 1.813,-0.306 2.002,-1.134 0.189,-0.828 -0.398,-1.668 -1.313,-1.89 -0.133,-0.03 -0.321,-0.08 -0.45,-0.105 -0.54,-0.102 -0.98,-0.077 -1.489,-0.12 -1.084,-0.113 -1.982,-0.205 -2.78,-0.457 -0.326,-0.126 -0.558,-0.513 -0.67,-0.673 L 84.02,56.523 c 0.325,-2.35 0.238,-4.795 -0.324,-7.242 a 20.08,20.08 0 0 0 -2.907,-6.72 c 0.16,-0.145 0.464,-0.413 0.55,-0.493 0.025,-0.278 0.004,-0.57 0.292,-0.878 0.61,-0.573 1.379,-1.048 2.307,-1.62 0.44,-0.26 0.847,-0.427 1.289,-0.753 0.1,-0.074 0.236,-0.19 0.341,-0.275 0.744,-0.594 0.916,-1.617 0.381,-2.287 -0.534,-0.67 -1.569,-0.733 -2.313,-0.14 -0.106,0.084 -0.25,0.194 -0.345,0.276 -0.416,0.358 -0.673,0.712 -1.024,1.084 -0.765,0.777 -1.397,1.425 -2.091,1.892 -0.301,0.175 -0.742,0.115 -0.942,0.103 l -0.59,0.42 C 75.28,36.363 70.7,34.108 65.768,33.67 a 37.228,37.228 0 0 1 -0.037,-0.693 c -0.202,-0.193 -0.446,-0.358 -0.507,-0.775 -0.068,-0.834 0.045,-1.732 0.176,-2.814 0.072,-0.506 0.191,-0.926 0.212,-1.475 0.004,-0.125 -0.003,-0.306 -0.004,-0.441 0,-0.952 -0.694,-1.724 -1.551,-1.724 z m -1.942,12.032 -0.461,8.137 -0.033,0.017 a 1.367,1.367 0 0 1 -1.366,1.309 1.36,1.36 0 0 1 -0.805,-0.262 l -0.013,0.007 -6.672,-4.73 a 15.98,15.98 0 0 1 7.696,-4.193 16.347,16.347 0 0 1 1.654,-0.285 z m 3.888,0 a 16.113,16.113 0 0 1 9.293,4.48 l -6.629,4.7 -0.023,-0.01 A 1.369,1.369 0 0 1 66.768,46.7 1.358,1.358 0 0 1 66.47,45.907 l -0.007,-0.003 z m -15.658,7.517 6.092,5.45 -0.007,0.033 c 0.55,0.478 0.631,1.307 0.173,1.882 a 1.367,1.367 0 0 1 -0.71,0.468 l -0.006,0.026 -7.81,2.254 a 15.976,15.976 0 0 1 2.268,-10.113 z m 27.38,0.004 a 16.175,16.175 0 0 1 2,4.882 c 0.403,1.755 0.504,3.507 0.338,5.2 l -7.849,-2.26 -0.007,-0.033 a 1.368,1.368 0 0 1 -0.97,-1.624 1.356,1.356 0 0 1 0.433,-0.726 l -0.003,-0.017 6.059,-5.422 z m -14.918,5.866 h 2.496 l 1.551,1.94 -0.556,2.419 -2.241,1.077 -2.247,-1.08 -0.557,-2.42 z m 8.002,6.636 a 1.359,1.359 0 0 1 0.315,0.023 l 0.013,-0.016 8.077,1.365 a 15.996,15.996 0 0 1 -6.466,8.124 l -3.136,-7.574 0.01,-0.013 a 1.37,1.37 0 0 1 1.187,-1.91 z m -13.567,0.033 a 1.368,1.368 0 0 1 1.237,1.906 l 0.023,0.03 -3.102,7.497 a 16.062,16.062 0 0 1 -6.447,-8.067 l 8.008,-1.36 0.013,0.017 a 1.384,1.384 0 0 1 0.268,-0.023 z m 6.765,3.285 a 1.354,1.354 0 0 1 0.64,0.136 c 0.271,0.13 0.481,0.336 0.613,0.583 h 0.03 l 3.948,7.133 a 16.362,16.362 0 0 1 -1.578,0.44 16.04,16.04 0 0 1 -8.754,-0.45 l 3.938,-7.12 h 0.007 a 1.37,1.37 0 0 1 1.156,-0.722 z"
       id="path3"
       clip-path="url(#clipPath39)"
       style="display:inline;fill:#800000" />
  </g>
</svg>
