<?xml version="1.0" encoding="UTF-8" standalone="no"?>
<!-- Created with Inkscape (http://www.inkscape.org/) -->

<svg
   width="512"
   height="512"
   viewBox="0 0 135.46667 135.46667"
   version="1.1"
   id="svg1"
   inkscape:version="1.4.2 (ebf0e940, 2025-05-08)"
   sodipodi:docname="favicon.svg"
   inkscape:export-filename="favicon.png"
   inkscape:export-xdpi="96"
   inkscape:export-ydpi="96"
   xmlns:inkscape="http://www.inkscape.org/namespaces/inkscape"
   xmlns:sodipodi="http://sodipodi.sourceforge.net/DTD/sodipodi-0.dtd"
   xmlns="http://www.w3.org/2000/svg"
   xmlns:svg="http://www.w3.org/2000/svg">
  <sodipodi:namedview
     id="namedview1"
     pagecolor="#505050"
     bordercolor="#eeeeee"
     borderopacity="1"
     inkscape:showpageshadow="0"
     inkscape:pageopacity="0"
     inkscape:pagecheckerboard="0"
     inkscape:deskcolor="#505050"
     inkscape:document-units="px"
     inkscape:zoom="1.1722722"
     inkscape:cx="256.7663"
     inkscape:cy="248.66238"
     inkscape:window-width="1440"
     inkscape:window-height="776"
     inkscape:window-x="0"
     inkscape:window-y="25"
     inkscape:window-maximized="0"
     inkscape:current-layer="layer1" />
  <defs
     id="defs1">
    <inkscape:perspective
       sodipodi:type="inkscape:persp3d"
       inkscape:vp_x="0 : 110.33125 : 1"
       inkscape:vp_y="0 : 1000 : 0"
       inkscape:vp_z="50.270835 : 110.33125 : 1"
       inkscape:persp3d-origin="25.135417 : 101.95278 : 1"
       id="perspective7" />
    <clipPath
       clipPathUnits="userSpaceOnUse"
       id="clipPath40">
      <path
         style="display:inline;opacity:0.5;fill:none;stroke:#000000;stroke-width:1.05764"
         d="m 86.90441,56.296594 3.42373,0.375844 0.402014,0.09242 3.595146,2.08835 -0.785871,3.415382 -4.153017,0.336147 -0.40267,-0.08956 -3.249451,-1.133257 -2.210659,4.55237 2.920099,1.811274 0.321832,0.256217 2.32509,3.427912 -2.202782,2.739186 -3.888805,-1.483542 -0.323672,-0.2539 -2.431678,-2.418732 -3.984141,3.150643 1.838215,2.887985 0.177835,0.369221 0.594582,4.08856 -3.183449,1.520356 -2.854504,-3.009262 -0.180388,-0.36807 -1.13232,-3.225098 -4.968474,1.124891 0.392252,3.392681 -0.0014,0.409153 -1.253713,3.93942 -3.53362,5.04e-4 -1.254696,-3.939188 -0.0015,-0.409167 0.391394,-3.392819 -4.968783,-1.123662 -1.131455,3.225458 -0.180345,0.368041 -2.853708,3.010097 -3.183843,-1.51962 0.59354,-4.088715 0.177701,-0.369287 1.83752,-2.888431 -3.984913,-3.149648 -2.431073,2.419257 -0.323549,0.254107 -3.888478,1.484375 -2.20348,-2.738579 2.324236,-3.428486 0.321752,-0.256242 2.919673,-1.812016 -2.211822,-4.551825 -3.249162,1.134042 -0.402718,0.08963 -4.153063,-0.335082 -0.786666,-3.415232 3.594567,-2.089215 0.402073,-0.09251 3.423544,-0.376695 -6.16e-4,-5.052438 -3.42373,-0.375844 -0.402014,-0.09242 -3.595146,-2.08835 0.785871,-3.415382 4.153017,-0.336147 0.40267,0.08956 3.249451,1.133257 2.210659,-4.55237 -2.920099,-1.811274 -0.321832,-0.256217 -2.32509,-3.427912 2.202782,-2.739186 3.888805,1.483542 0.323672,0.2539 2.431678,2.418732 3.984141,-3.150643 -1.838215,-2.887985 -0.177835,-0.369221 -0.594582,-4.08856 3.183449,-1.520356 2.854504,3.009262 0.180388,0.36807 1.13232,3.225098 4.968474,-1.124891 -0.392252,-3.392681 0.0014,-0.409153 1.253713,-3.93942 3.53362,-5.04e-4 1.254696,3.939188 0.0015,0.409167 -0.391394,3.392819 4.968783,1.123662 1.131455,-3.225458 0.180345,-0.368041 2.853708,-3.010097 3.183843,1.51962 -0.59354,4.088715 -0.177701,0.369287 -1.83752,2.888431 3.984913,3.149648 2.431073,-2.419257 0.323549,-0.254107 3.888478,-1.484375 2.20348,2.738579 -2.324236,3.428486 -0.321752,0.256242 -2.919673,1.812016 2.211822,4.551825 3.249162,-1.134042 0.402718,-0.08963 4.153063,0.335082 0.786666,3.415232 -3.594567,2.089215 -0.402073,0.09251 -3.423544,0.376695 z"
         id="path40" />
    </clipPath>
    <clipPath
       clipPathUnits="userSpaceOnUse"
       id="clipPath39">
      <path
         style="display:inline;opacity:0.5;fill:none;stroke:#000000;stroke-width:1.05764"
         d="m 86.90441,56.296594 3.42373,0.375844 0.402014,0.09242 3.595146,2.08835 -0.785871,3.415382 -4.153017,0.336147 -0.40267,-0.08956 -3.249451,-1.133257 -2.210659,4.55237 2.920099,1.811274 0.321832,0.256217 2.32509,3.427912 -2.202782,2.739186 -3.888805,-1.483542 -0.323672,-0.2539 -2.431678,-2.418732 -3.984141,3.150643 1.838215,2.887985 0.177835,0.369221 0.594582,4.08856 -3.183449,1.520356 -2.854504,-3.009262 -0.180388,-0.36807 -1.13232,-3.225098 -4.968474,1.124891 0.392252,3.392681 -0.0014,0.409153 -1.253713,3.93942 -3.53362,5.04e-4 -1.254696,-3.939188 -0.0015,-0.409167 0.391394,-3.392819 -4.968783,-1.123662 -1.131455,3.225458 -0.180345,0.368041 -2.853708,3.010097 -3.183843,-1.51962 0.59354,-4.088715 0.177701,-0.369287 1.83752,-2.888431 -3.984913,-3.149648 -2.431073,2.419257 -0.323549,0.254107 -3.888478,1.484375 -2.20348,-2.738579 2.324236,-3.428486 0.321752,-0.256242 2.919673,-1.812016 -2.211822,-4.551825 -3.249162,1.134042 -0.402718,0.08963 -4.153063,-0.335082 -0.786666,-3.415232 3.594567,-2.089215 0.402073,-0.09251 3.423544,-0.376695 -6.16e-4,-5.052438 -3.42373,-0.375844 -0.402014,-0.09242 -3.595146,-2.08835 0.785871,-3.415382 4.153017,-0.336147 0.40267,0.08956 3.249451,1.133257 2.210659,-4.55237 -2.920099,-1.811274 -0.321832,-0.256217 -2.32509,-3.427912 2.202782,-2.739186 3.888805,1.483542 0.323672,0.2539 2.431678,2.418732 3.984141,-3.150643 -1.838215,-2.887985 -0.177835,-0.369221 -0.594582,-4.08856 3.183449,-1.520356 2.854504,3.009262 0.180388,0.36807 1.13232,3.225098 4.968474,-1.124891 -0.392252,-3.392681 0.0014,-0.409153 1.253713,-3.93942 3.53362,-5.04e-4 1.254696,3.939188 0.0015,0.409167 -0.391394,3.392819 4.968783,1.123662 1.131455,-3.225458 0.180345,-0.368041 2.853708,-3.010097 3.183843,1.51962 -0.59354,4.088715 -0.177701,0.369287 -1.83752,2.888431 3.984913,3.149648 2.431073,-2.419257 0.323549,-0.254107 3.888478,-1.484375 2.20348,2.738579 -2.324236,3.428486 -0.321752,0.256242 -2.919673,1.812016 2.211822,4.551825 3.249162,-1.134042 0.402718,-0.08963 4.153063,0.335082 0.786666,3.415232 -3.594567,2.089215 -0.402073,0.09251 -3.423544,0.376695 z"
         id="path39" />
    </clipPath>
    <filter
       inkscape:collect="always"
       style="color-interpolation-filters:sRGB"
       id="filter13"
       x="-3.3759134e-05"
       y="-3.4557825e-05"
       width="1.0000675"
       height="1.0000691">
      <feGaussianBlur
         inkscape:collect="always"
         stdDeviation="0.00076873431"
         id="feGaussianBlur13" />
    </filter>
  </defs>
  <g
     inkscape:label="Layer 1"
     inkscape:groupmode="layer"
     id="layer1">
    <path
       sodipodi:type="star"
       style="opacity:1;fill:#326de6;fill-opacity:1;stroke:#fdd94e;stroke-width:0.264583;stroke-opacity:1"
       id="path1"
       inkscape:flatsided="true"
       sodipodi:sides="7"
       sodipodi:cx="19.911325"
       sodipodi:cy="13.032868"
       sodipodi:r1="15.615529"
       sodipodi:r2="16.266176"
       sodipodi:arg1="0.58337301"
       sodipodi:arg2="1.032172"
       inkscape:rounded="0.19"
       inkscape:randomized="0"
       d="M 32.944193,21.634561 C 31.525982,23.783366 23.876355,28.354486 21.312111,28.585442 18.747868,28.816398 10.404557,25.685726 8.6252095,23.824918 6.8458614,21.96411 4.0915505,13.489105 4.4369831,10.93776 4.7824158,8.3864155 9.6911567,0.94892935 11.901252,-0.37173806 14.111348,-1.6924055 22.986758,-2.4917941 25.39727,-1.5872945 27.807781,-0.68279492 33.966496,5.75787 34.762259,8.2064299 35.558022,10.65499 34.362404,19.485756 32.944193,21.634561 Z"
       inkscape:transform-center-x="4.9768697"
       inkscape:transform-center-y="0.88528932"
       transform="matrix(4.3689256,0.38223146,-0.38223146,4.3689256,-14.250135,1.6294162)" />
    <path
       fill="#ffffff"
       d="m 64.057,25.748 c -0.857,0 -1.551,0.772 -1.551,1.724 0,0.015 0.003,0.029 0.003,0.043 -10e-4,0.13 -0.007,0.285 -0.003,0.398 0.02,0.549 0.14,0.97 0.212,1.475 0.13,1.082 0.24,1.98 0.172,2.814 -0.065,0.314 -0.297,0.602 -0.503,0.802 L 62.35,33.66 c -0.943594,0.0774 -1.880573,0.221091 -2.804,0.43 -3.880326,0.876378 -7.410093,2.892691 -10.136,5.79 -0.1884,-0.129532 -0.375083,-0.261544 -0.56,-0.396 -0.277,0.037 -0.557,0.123 -0.921,-0.09 -0.695,-0.467 -1.327,-1.112 -2.092,-1.89 -0.35,-0.371 -0.604,-0.724 -1.02,-1.083 -0.095,-0.081 -0.24,-0.191 -0.345,-0.275 -0.307084,-0.248032 -0.685623,-0.391036 -1.08,-0.408 -0.475984,-0.02544 -0.935537,0.177773 -1.237,0.547 -0.534,0.67 -0.363,1.694 0.38,2.287 l 0.024,0.017 c 0.102,0.083 0.228,0.189 0.322,0.258 0.442,0.327 0.845,0.494 1.286,0.753 0.927,0.573 1.697,1.048 2.307,1.62 0.238,0.255 0.28,0.702 0.311,0.896 l 0.497,0.444 c -2.742968,4.115463 -3.870021,9.098711 -3.165,13.994 l -0.65,0.189 c -0.17,0.22 -0.413,0.569 -0.666,0.672 -0.798,0.252 -1.696,0.344 -2.78,0.458 -0.51,0.042 -0.95,0.017 -1.489,0.119 -0.119,0.023 -0.284,0.066 -0.414,0.096 l -0.014,0.003 -0.023,0.007 c -0.914,0.22 -1.501,1.06 -1.312,1.89 0.189,0.827 1.082,1.33 2.002,1.133 0.006,-0.002 0.016,-0.002 0.023,-0.003 0.01,-0.003 0.02,-0.008 0.03,-0.01 0.128,-0.028 0.289,-0.06 0.4,-0.09 0.531,-0.142 0.916,-0.35 1.393,-0.533 1.026,-0.37 1.876,-0.676 2.704,-0.796 0.346,-0.027 0.71,0.213 0.892,0.315 l 0.676,-0.116 c 1.556,4.824 4.817,8.723 8.946,11.17 l -0.282,0.676 c 0.102,0.263 0.214,0.618 0.138,0.877 -0.3,0.78 -0.817,1.605 -1.404,2.524 -0.284,0.424 -0.575,0.753 -0.832,1.24 -0.061,0.115 -0.14,0.294 -0.199,0.417 -0.398,0.853 -0.106,1.835 0.66,2.204 0.77,0.37 1.727,-0.02 2.141,-0.875 l 0.004,-0.004 0,-0.003 c 0.059,-0.122 0.142,-0.28 0.192,-0.395 0.22,-0.503 0.293,-0.935 0.447,-1.422 0.41,-1.03 0.636,-2.112 1.201,-2.786 0.155,-0.185 0.407,-0.256 0.669,-0.326 l 0.351,-0.636 c 3.71523,1.430548 7.772319,1.72228 11.654,0.838 0.904419,-0.205703 1.793538,-0.473675 2.661,-0.802 0.1,0.175 0.283,0.512 0.332,0.597 0.266,0.086 0.556,0.13 0.792,0.48 0.423,0.722 0.712,1.577 1.064,2.609 0.155,0.487 0.231,0.918 0.45,1.422 0.05,0.114 0.134,0.276 0.193,0.397 0.413,0.858 1.373,1.25 2.145,0.879 0.765,-0.37 1.058,-1.352 0.66,-2.204 -0.06,-0.123 -0.142,-0.302 -0.203,-0.418 -0.257,-0.486 -0.548,-0.812 -0.832,-1.236 -0.587,-0.92 -1.074,-1.682 -1.375,-2.463 -0.126,-0.403 0.02,-0.653 0.119,-0.915 -0.059,-0.067 -0.185,-0.447 -0.259,-0.626 4.260173,-2.52592 7.443056,-6.529882 8.943,-11.25 0.2,0.032 0.55,0.094 0.663,0.116 0.233,-0.154 0.447,-0.354 0.868,-0.321 0.828,0.12 1.678,0.427 2.705,0.795 0.477,0.183 0.861,0.395 1.392,0.537 0.112,0.03 0.273,0.058 0.4,0.086 0.011,0.003 0.02,0.008 0.03,0.01 l 0.024,0.004 c 0.92,0.198 1.813,-0.306 2.002,-1.134 0.189,-0.828 -0.398,-1.668 -1.313,-1.89 -0.133,-0.03 -0.321,-0.08 -0.45,-0.105 -0.54,-0.102 -0.98,-0.077 -1.489,-0.12 -1.084,-0.113 -1.982,-0.205 -2.78,-0.457 -0.326,-0.126 -0.558,-0.513 -0.67,-0.673 L 84.02,56.523 c 0.325,-2.35 0.238,-4.795 -0.324,-7.242 -0.548972,-2.399228 -1.534349,-4.677087 -2.907,-6.72 0.16,-0.145 0.464,-0.413 0.55,-0.493 0.025,-0.278 0.004,-0.57 0.292,-0.878 0.61,-0.573 1.379,-1.048 2.307,-1.62 0.44,-0.26 0.847,-0.427 1.289,-0.753 0.1,-0.074 0.236,-0.19 0.341,-0.275 0.744,-0.594 0.916,-1.617 0.381,-2.287 -0.534,-0.67 -1.569,-0.733 -2.313,-0.14 -0.106,0.084 -0.25,0.194 -0.345,0.276 -0.416,0.358 -0.673,0.712 -1.024,1.084 -0.765,0.777 -1.397,1.425 -2.091,1.892 -0.301,0.175 -0.742,0.115 -0.942,0.103 l -0.59,0.42 C 75.28,36.363 70.7,34.108 65.768,33.67 c -0.01449,-0.23088 -0.02682,-0.46189 -0.037,-0.693 -0.202,-0.193 -0.446,-0.358 -0.507,-0.775 -0.068,-0.834 0.045,-1.732 0.176,-2.814 0.072,-0.506 0.191,-0.926 0.212,-1.475 0.004,-0.125 -0.003,-0.306 -0.004,-0.441 0,-0.952 -0.694,-1.724 -1.551,-1.724 z M 61.392968,41.087537 61.654,45.917 61.621,45.934 c -0.03108,0.731844 -0.633496,1.309124 -1.366,1.309 -0.289373,5.33e-4 -0.571374,-0.09125 -0.805,-0.262 l -0.013,0.007 -4.381968,-3.316876 c 2.124444,-2.08757 -0.0034,-1.522442 2.902588,-2.175581 0.546089,-0.12326 2.774838,0.07716 3.435348,-0.408006 z m 3.961305,-0.153138 c 3.504934,0.434523 3.809233,0.197533 6.332208,2.668965 L 68.667,46.96 68.644,46.95 C 68.052475,47.38193 67.22577,47.271761 66.768,46.7 66.586651,46.474204 66.482235,46.196347 66.47,45.907 L 66.463,45.904 Z M 51.974865,46.689898 56.437,50.747 56.43,50.78 c 0.55,0.478 0.631,1.307 0.173,1.882 -0.180893,0.227516 -0.429597,0.391451 -0.71,0.468 l -0.006,0.026 -6.385006,1.875902 c -0.388832,-3.52937 0.614052,-5.316705 2.472871,-8.342004 z m 24.577258,1.061313 c 0.929355,1.506911 0.917935,0.793267 1.312927,2.51909 0.403,1.755 0.356967,2.414806 0.190967,4.107806 L 72.214,53.123 72.207,53.09 c -0.70581,-0.194553 -1.13333,-0.910318 -0.97,-1.624 0.06329,-0.281955 0.214996,-0.536319 0.433,-0.726 l -0.003,-0.017 3.523841,-3.124515 z M 62.807,51.167 h 2.496 l 1.551,1.94 -0.556,2.419 -2.241,1.077 -2.247,-1.08 -0.557,-2.42 z m 8.002,6.636 c 0.105537,-0.0046 0.211251,0.0031 0.315,0.023 l 0.013,-0.016 5.645655,0.446996 c -1.192035,3.351644 -1.764964,4.653133 -4.763676,6.56682 L 69.612,59.725 l 0.01,-0.013 c -0.377361,-0.876301 0.234193,-1.860352 1.187,-1.91 z m -13.567,0.033 c 0.972776,0.01472 1.619724,1.011554 1.237,1.906 l 0.023,0.03 -1.965775,5.123358 C 53.557832,62.989325 52.015382,62.440048 50.81295,59.114699 L 56.961,57.842 l 0.013,0.017 c 0.08838,-0.01635 0.178132,-0.02405 0.268,-0.023 z m 6.765,3.285 c 0.221243,-0.0077 0.440992,0.03903 0.64,0.136 0.271,0.13 0.481,0.336 0.613,0.583 h 0.03 l 2.401609,4.56618 c -0.518323,0.172924 -2.22358,1.182673 -2.756597,1.302899 -2.903183,0.66569 -2.05198,0.595522 -4.871601,-0.364349 L 62.844,61.843 h 0.007 c 0.229788,-0.428865 0.669798,-0.703681 1.156,-0.722 z"
       id="path3"
       clip-path="url(#clipPath39)"
       style="display:inline;opacity:1;fill:#fff734;filter:url(#filter13);fill-opacity:1"
       transform="matrix(2.1363551,-0.99619878,1.0226393,2.193057,-123.80789,11.480204)"
       sodipodi:nodetypes="ssccccccccccccccccccccccccccccccccccccccccccccccccccccccccccccccccccccccccccccsccccccccccccccccccccccccccscccccccccccccccccccccccccccccccccccccccccccccccccccccccccccccccccccccc" />
  </g>
</svg>
